<?xml version="1.0" standalone="no"?>
<!DOCTYPE svg PUBLIC "-//W3C//DTD SVG 20010904//EN"
 "http://www.w3.org/TR/2001/REC-SVG-20010904/DTD/svg10.dtd">
<svg version="1.0" xmlns="http://www.w3.org/2000/svg"
 width="1628.000000pt" height="612.000000pt" viewBox="0 0 1628.000000 612.000000"
 preserveAspectRatio="xMidYMid meet">

<g transform="translate(0.000000,612.000000) scale(0.100000,-0.100000)"
fill="#000000" stroke="none">
<path d="M3490 4374 c-239 -27 -330 -45 -530 -105 -845 -254 -1658 -916 -2248
-1831 -45 -70 -99 -158 -119 -195 l-38 -68 30 23 c186 141 542 360 835 515
171 90 568 267 598 267 4 0 7 -53 8 -118 1 -201 48 -328 170 -449 163 -165
403 -210 601 -113 61 30 126 92 136 130 3 12 -15 37 -61 81 -196 192 -223 391
-81 603 147 221 472 412 844 497 61 13 142 22 250 26 137 4 174 2 260 -16 137
-28 249 -84 334 -167 45 -44 67 -60 73 -51 15 25 39 151 44 240 12 176 -52
350 -169 465 -77 76 -115 105 -192 144 -162 83 -317 117 -555 123 -85 2 -171
1 -190 -1z"/>
<path d="M4690 2840 l0 -450 105 0 105 0 0 248 c1 288 -12 282 121 55 82 -140
92 -153 118 -153 25 0 35 12 101 123 115 192 125 207 133 207 4 0 7 -108 7
-240 l0 -240 105 0 105 0 0 450 0 450 -108 0 -109 0 -114 -195 c-63 -107 -116
-195 -119 -195 -3 0 -57 88 -120 195 l-114 195 -108 0 -108 0 0 -450z"/>
<path d="M8275 3270 c-169 -56 -297 -221 -312 -400 -15 -184 90 -361 266 -448
73 -36 78 -37 185 -37 129 0 190 19 278 86 52 38 128 124 128 144 0 6 -19 20
-43 33 -23 13 -64 35 -90 50 l-48 26 -26 -33 c-33 -42 -90 -77 -147 -92 -136
-34 -286 88 -286 234 0 93 41 163 124 212 95 55 195 42 281 -37 29 -26 56 -48
59 -48 6 0 165 87 175 96 2 2 -7 19 -18 38 -34 55 -109 115 -191 155 -69 33
-84 36 -175 38 -79 2 -113 -1 -160 -17z"/>
<path d="M9375 3269 c-164 -57 -277 -191 -307 -369 -38 -223 126 -460 353
-510 32 -7 92 -11 137 -8 136 8 275 89 348 204 90 141 99 318 22 468 -45 89
-154 179 -263 216 -79 27 -208 27 -290 -1z m240 -213 c95 -45 145 -121 145
-221 0 -92 -42 -162 -128 -212 -86 -51 -223 -27 -289 51 -91 108 -83 253 19
341 78 66 169 81 253 41z"/>
<path d="M10280 2840 l0 -450 105 0 105 0 1 68 c1 37 3 147 4 244 1 98 4 180
6 183 3 3 77 -108 165 -245 l159 -251 90 3 90 3 0 445 0 445 -107 3 -108 3 -2
-228 -3 -227 -144 227 -144 227 -109 0 -108 0 0 -450z"/>
<path d="M11365 3278 c-3 -7 -4 -209 -3 -448 l3 -435 108 -3 107 -3 0 252 c0
139 3 249 8 245 4 -4 77 -116 162 -249 l155 -242 90 0 90 0 0 445 0 445 -107
3 -108 3 -2 -227 -3 -226 -74 118 c-41 66 -105 167 -144 227 l-69 107 -104 0
c-75 0 -106 -4 -109 -12z"/>
<path d="M13575 3267 c-142 -54 -236 -152 -285 -297 -19 -54 -21 -80 -18 -157
5 -79 10 -102 41 -168 47 -98 120 -170 223 -221 66 -33 87 -38 163 -42 142 -7
242 31 349 132 47 45 90 103 80 110 -10 8 -171 96 -175 96 -3 0 -23 -18 -44
-40 -98 -101 -231 -113 -332 -30 -116 97 -123 255 -15 356 102 96 234 95 336
-2 25 -24 49 -44 53 -44 18 0 169 93 169 104 0 22 -60 95 -109 131 -93 67
-154 88 -271 92 -90 3 -113 0 -165 -20z"/>
<path d="M5950 2835 l0 -445 283 2 282 3 0 100 0 99 -170 1 -170 0 -3 78 -3
77 156 0 155 0 0 100 0 100 -155 0 -155 0 0 65 0 65 170 0 170 0 0 100 0 100
-280 0 -280 0 0 -445z"/>
<path d="M6840 2835 l0 -445 218 0 c234 0 289 8 380 54 126 64 223 205 236
342 22 223 -128 433 -345 483 -24 6 -144 11 -266 11 l-223 0 0 -445z m486 218
c125 -66 170 -223 98 -340 -56 -90 -151 -128 -305 -121 l-64 3 -2 234 c-1 129
1 239 4 244 3 5 55 7 117 5 89 -3 119 -8 152 -25z"/>
<path d="M12448 3218 c-2 -35 -2 -235 0 -446 l2 -382 281 2 280 3 3 98 3 97
-174 0 -173 0 0 80 0 80 155 0 155 0 0 100 0 100 -155 0 -155 0 0 65 0 65 170
0 170 0 0 100 0 100 -280 0 -279 0 -3 -62z"/>
<path d="M14380 3180 l0 -99 113 -3 112 -3 3 -342 2 -343 105 0 105 0 2 343 3
342 110 5 110 5 3 98 3 97 -336 0 -335 0 0 -100z"/>
</g>
</svg>
