<?xml version="1.0" standalone="no"?>
<!DOCTYPE svg PUBLIC "-//W3C//DTD SVG 20010904//EN"
 "http://www.w3.org/TR/2001/REC-SVG-20010904/DTD/svg10.dtd">
<svg version="1.0" xmlns="http://www.w3.org/2000/svg"
 width="1024.000000pt" height="1024.000000pt" viewBox="0 0 1024.000000 1024.000000"
 preserveAspectRatio="xMidYMid meet">

<g transform="translate(0.000000,1024.000000) scale(0.100000,-0.100000)"
fill="#000000" stroke="none">
<path d="M4720 8534 c-302 -46 -596 -158 -843 -320 -257 -169 -465 -389 -576
-612 -79 -157 -122 -368 -103 -502 7 -46 6 -67 -2 -72 -6 -4 -44 -8 -84 -8
-71 0 -76 -2 -108 -34 -28 -28 -34 -42 -34 -76 0 -34 6 -48 34 -76 32 -32 38
-34 113 -36 43 -2 99 -3 126 -2 l47 0 0 -38 c0 -24 -5 -38 -13 -38 -27 0 -154
-70 -199 -109 -61 -54 -115 -138 -146 -225 -32 -88 -36 -249 -9 -334 77 -248
295 -398 524 -362 220 35 388 220 418 463 l7 57 59 0 59 0 0 -48 c0 -112 57
-245 146 -341 42 -46 77 -72 141 -103 76 -38 93 -42 175 -46 52 -3 115 1 147
8 215 47 391 270 391 494 0 39 4 56 13 56 7 0 127 9 267 20 291 24 297 26 317
104 24 96 102 188 197 232 178 83 359 -62 373 -300 13 -198 -82 -414 -219
-499 l-51 -32 6 -75 c3 -41 11 -127 18 -191 l12 -117 61 36 c153 89 312 239
428 402 202 285 322 658 306 949 l-5 87 66 -23 c127 -43 288 -27 420 42 233
122 363 375 348 675 -17 355 -223 645 -532 747 -68 23 -98 27 -200 27 -88 0
-136 -4 -179 -18 -139 -42 -266 -131 -332 -235 -22 -33 -41 -60 -44 -60 -3 0
-27 27 -54 60 -53 65 -175 172 -271 236 -144 97 -349 180 -550 223 -133 29
-518 37 -665 14z m-759 -1361 c21 -28 21 -30 15 -288 -4 -160 -11 -264 -18
-272 -7 -8 -36 -13 -82 -13 l-71 0 -1 -30 -2 -30 80 0 c70 0 82 3 103 25 21
20 25 34 25 85 l0 60 54 0 54 0 4 -67 c3 -61 1 -72 -23 -103 -31 -41 -71 -120
-89 -173 l-12 -38 -70 3 -70 3 -18 57 c-9 31 -31 79 -49 107 -27 46 -31 60
-31 126 0 41 4 75 9 75 5 0 12 100 16 222 l7 222 28 28 c23 22 37 28 74 28 37
0 48 -5 67 -27z m943 -162 c4 -5 -3 -7 -14 -4 -23 6 -26 13 -6 13 8 0 17 -4
20 -9z m-137 -19 c-9 -9 -20 -29 -26 -42 -6 -15 -10 -19 -10 -9 -1 16 35 69
46 69 3 0 -1 -8 -10 -18z m-40 -94 c-3 -8 -6 -5 -6 6 -1 11 2 17 5 13 3 -3 4
-12 1 -19z m42 -73 c9 -12 4 -8 -11 7 -16 16 -28 34 -28 41 0 6 6 3 12 -8 6
-11 18 -29 27 -40z m181 22 c0 -2 -10 -12 -22 -23 l-23 -19 19 23 c18 21 26
27 26 19z m-185 -152 c39 -13 94 -25 123 -29 77 -8 159 -56 239 -140 l68 -71
-70 -6 c-38 -4 -95 -7 -125 -8 l-55 -1 -30 51 c-40 68 -149 169 -210 195 -106
46 -104 45 -55 38 25 -3 77 -16 115 -29z m-1245 -115 c95 -48 158 -124 191
-229 47 -155 12 -331 -89 -443 -196 -217 -541 -104 -612 201 -47 202 72 426
259 486 69 22 194 15 251 -15z m1100 2 c161 -71 248 -223 238 -419 -3 -73 -10
-100 -35 -155 -40 -85 -106 -156 -180 -194 -53 -26 -67 -29 -158 -29 -93 0
-105 2 -166 32 -81 40 -140 102 -182 191 -30 64 -32 73 -32 187 0 114 2 123
31 186 52 110 130 180 237 215 58 19 189 12 247 -14z"/>
<path d="M3281 6408 c-117 -58 -155 -230 -78 -346 56 -82 154 -114 240 -78 43
17 101 85 115 135 59 196 -109 372 -277 289z"/>
<path d="M4394 6401 c-99 -45 -147 -171 -113 -296 15 -53 91 -129 146 -145 85
-26 170 7 228 88 26 38 30 54 33 121 4 86 -7 125 -53 179 -58 69 -157 91 -241
53z"/>
<path d="M4305 5179 c-42 -12 -119 -22 -195 -26 -69 -3 -131 -10 -137 -16 -20
-15 -15 -43 12 -75 53 -63 190 -62 308 0 64 34 117 88 117 118 0 24 -13 24
-105 -1z"/>
<path d="M4663 4343 c-200 -511 -288 -1160 -243 -1778 17 -227 59 -485 78
-485 4 0 49 84 101 188 134 270 343 649 549 997 36 61 159 269 273 462 115
194 209 355 209 358 0 3 -24 -10 -52 -29 -180 -115 -388 -186 -544 -186 -106
0 -170 20 -228 71 -86 76 -111 159 -104 353 2 69 1 126 -3 126 -3 0 -20 -35
-36 -77z"/>
</g>
</svg>
